<svg width="63" height="63" viewBox="0 0 63 63" fill="none" xmlns="http://www.w3.org/2000/svg">
<path d="M31.5 57.75L30.8438 49.875H30.1875C23.975 49.875 18.7031 47.7094 14.3719 43.3781C10.0406 39.0469 7.875 33.775 7.875 27.5625C7.875 21.35 10.0406 16.0781 14.3719 11.7469C18.7031 7.41562 23.975 5.25 30.1875 5.25C33.2938 5.25 36.1926 5.82925 38.8841 6.98775C41.5756 8.14625 43.9381 9.74312 45.9716 11.7784C48.0051 13.8136 49.6011 16.1761 50.7596 18.8659C51.9181 21.5556 52.4982 24.4545 52.5 27.5625C52.5 30.8438 51.9645 33.9938 50.8935 37.0125C49.8225 40.0312 48.356 42.8312 46.494 45.4125C44.6355 47.9937 42.4261 50.3344 39.8659 52.4344C37.3056 54.5344 34.517 56.3063 31.5 57.75ZM30.1219 41.9344C30.8656 41.9344 31.5 41.6719 32.025 41.1469C32.55 40.6219 32.8125 39.9875 32.8125 39.2437C32.8125 38.5 32.55 37.8656 32.025 37.3406C31.5 36.8156 30.8656 36.5531 30.1219 36.5531C29.3781 36.5531 28.7437 36.8156 28.2188 37.3406C27.6938 37.8656 27.4312 38.5 27.4312 39.2437C27.4312 39.9875 27.6938 40.6219 28.2188 41.1469C28.7437 41.6719 29.3781 41.9344 30.1219 41.9344ZM28.2188 33.6H32.1562C32.1562 32.2875 32.2875 31.3687 32.55 30.8438C32.8125 30.3188 33.6438 29.3562 35.0438 27.9562C35.8313 27.1687 36.4875 26.3156 37.0125 25.3969C37.5375 24.4781 37.8 23.4937 37.8 22.4438C37.8 20.2125 37.0457 18.5386 35.5373 17.4221C34.0287 16.3056 32.2455 15.7483 30.1875 15.75C28.2625 15.75 26.6437 16.2864 25.3312 17.3591C24.0187 18.4319 23.1 19.733 22.575 21.2625L26.25 22.7062C26.4688 21.9625 26.8844 21.2301 27.4969 20.5091C28.1094 19.7881 29.0063 19.4268 30.1875 19.425C31.3687 19.425 32.2551 19.7531 32.8466 20.4094C33.4381 21.0656 33.733 21.7875 33.7313 22.575C33.7313 23.3188 33.5125 23.9864 33.075 24.5779C32.6375 25.1694 32.1125 25.7705 31.5 26.3813C29.9688 27.6938 29.0395 28.7332 28.7122 29.4998C28.385 30.2663 28.2205 31.633 28.2188 33.6Z" fill="white"/>
</svg>
