<svg width="65" height="65" viewBox="0 0 65 65" fill="none" xmlns="http://www.w3.org/2000/svg">
<path fill-rule="evenodd" clip-rule="evenodd" d="M40.6247 8.12769C40.9803 8.12769 41.3325 8.19774 41.6611 8.33385C41.9897 8.46995 42.2883 8.66945 42.5398 8.92094C42.7912 9.17243 42.9907 9.47099 43.1269 9.79958C43.263 10.1282 43.333 10.4804 43.333 10.836C43.333 11.1917 43.263 11.5439 43.1269 11.8725C42.9907 12.201 42.7912 12.4996 42.5398 12.7511C42.2883 13.0026 41.9897 13.2021 41.6611 13.3382C41.3325 13.4743 40.9803 13.5444 40.6247 13.5444H16.2497V48.7527C16.2497 49.471 16.535 50.1599 17.0429 50.6678C17.5508 51.1757 18.2397 51.461 18.958 51.461H40.6247C41.343 51.461 42.0318 51.7464 42.5398 52.2543C43.0477 52.7622 43.333 53.4511 43.333 54.1693C43.333 54.8876 43.0477 55.5765 42.5398 56.0844C42.0318 56.5923 41.343 56.8777 40.6247 56.8777H18.958C16.8031 56.8777 14.7365 56.0217 13.2128 54.4979C11.689 52.9742 10.833 50.9076 10.833 48.7527V10.836C10.833 10.1177 11.1183 9.42885 11.6263 8.92094C12.1342 8.41303 12.823 8.12769 13.5413 8.12769H40.6247ZM45.2478 22.4629C44.8692 22.0844 44.3869 21.8266 43.8619 21.7221C43.3368 21.6175 42.7926 21.6709 42.2979 21.8755C41.8032 22.0801 41.3802 22.4268 41.0824 22.8716C40.7846 23.3165 40.6253 23.8396 40.6247 24.375V29.7916H24.3747C23.6564 29.7916 22.9675 30.077 22.4596 30.5849C21.9517 31.0928 21.6663 31.7817 21.6663 32.5C21.6663 33.2183 21.9517 33.9071 22.4596 34.4151C22.9675 34.923 23.6564 35.2083 24.3747 35.2083H40.6247V40.625C40.6248 41.1606 40.7837 41.6841 41.0813 42.1293C41.3789 42.5746 41.8018 42.9217 42.2967 43.1266C42.7915 43.3315 43.3359 43.3852 43.8612 43.2807C44.3865 43.1763 44.869 42.9184 45.2478 42.5398L53.3728 34.4148C53.8805 33.9069 54.1658 33.2181 54.1658 32.5C54.1658 31.7818 53.8805 31.0931 53.3728 30.5852L45.2478 22.4629Z" fill="white"/>
</svg>
