<svg width="67" height="67" viewBox="0 0 67 67" fill="none" xmlns="http://www.w3.org/2000/svg">
<g clip-path="url(#clip0_1_2)">
<path d="M57.1234 10.0953L35.7114 12.4227C35.4469 12.4514 35.3479 12.7846 35.5538 12.9531L45.7943 21.3317C45.9117 21.4278 46.0823 21.4211 46.1919 21.3161L57.3633 10.6101C57.5701 10.4119 57.4081 10.0643 57.1234 10.0953Z" fill="white"/>
<path d="M9.35 10.0944L30.2912 12.4212C30.5553 12.4506 30.6537 12.7834 30.448 12.9516L20.2101 21.3281C20.0908 21.4257 19.917 21.417 19.808 21.308L9.10474 10.6047C8.90422 10.4042 9.06815 10.0631 9.35 10.0944Z" fill="white"/>
<path d="M0.490088 23C0.26595 23 0.120968 22.7632 0.222917 22.5635L6.45098 10.3694C6.54394 10.1874 6.7877 10.1496 6.93143 10.2949L18.9945 22.489C19.1819 22.6785 19.0477 23 18.7812 23H0.490088Z" fill="white"/>
<path d="M66.4987 23C66.7255 23 66.8703 22.7581 66.7631 22.5582L60.2153 10.3487C60.1214 10.1736 59.8863 10.1365 59.7431 10.2741L47.0373 22.4837C46.8425 22.6709 46.975 23 47.2452 23H66.4987Z" fill="white"/>
<path d="M21.8331 23H44.1759C44.456 23 44.5833 22.6503 44.3687 22.4702L33.2764 13.1607C33.1655 13.0676 33.0039 13.0671 32.8923 13.1594L21.6419 22.4689C21.4253 22.6481 21.552 23 21.8331 23Z" fill="white"/>
<path d="M33.9633 65.5439C33.6914 66.5193 32.3086 66.5193 32.0367 65.5439L21.2292 26.7685C21.0515 26.1311 21.5308 25.5 22.1925 25.5L43.8075 25.5C44.4692 25.5 44.9485 26.1311 44.7708 26.7685L33.9633 65.5439Z" fill="white"/>
<path d="M19.6057 25.2179C19.569 25.089 19.4512 25 19.3172 25H0.645205C0.390067 25 0.251387 25.2983 0.415817 25.4933L28.5999 58.9321C28.8082 59.1793 29.2063 58.9676 29.1179 58.6567L19.6057 25.2179Z" fill="white"/>
<path d="M46.4378 25.2176C46.4746 25.0888 46.5923 25 46.7263 25H66.3406C66.5981 25 66.736 25.303 66.5668 25.4971L37.3845 58.985C37.1738 59.2268 36.7818 59.0138 36.8699 58.7055L46.4378 25.2176Z" fill="white"/>
</g>
<defs>
<clipPath id="clip0_1_2">
<rect width="67" height="67" fill="white"/>
</clipPath>
</defs>
</svg>
